<svg width="14" height="16" viewBox="0 0 14 16" fill="none" xmlns="http://www.w3.org/2000/svg">
<path d="M12.3333 1.99984H11.6667V1.33317C11.6667 0.966504 11.3667 0.666504 11 0.666504C10.6333 0.666504 10.3333 0.966504 10.3333 1.33317V1.99984H3.66666V1.33317C3.66666 0.966504 3.36666 0.666504 2.99999 0.666504C2.63333 0.666504 2.33333 0.966504 2.33333 1.33317V1.99984H1.66666C0.933328 1.99984 0.333328 2.59984 0.333328 3.33317V13.9998C0.333328 14.7332 0.933328 15.3332 1.66666 15.3332H12.3333C13.0667 15.3332 13.6667 14.7332 13.6667 13.9998V3.33317C13.6667 2.59984 13.0667 1.99984 12.3333 1.99984ZM11.6667 13.9998H2.33333C1.96666 13.9998 1.66666 13.6998 1.66666 13.3332V5.33317H12.3333V13.3332C12.3333 13.6998 12.0333 13.9998 11.6667 13.9998Z" fill="#212121" fill-opacity="0.42"/>
</svg>
