<svg width="14" height="10" viewBox="0 0 14 10" fill="none" xmlns="http://www.w3.org/2000/svg">
<path d="M5.00668 6.33335H1.00001C0.633343 6.33335 0.333344 6.63335 0.333344 7.00002C0.333344 7.36669 0.633343 7.66669 1.00001 7.66669H5.00668V8.86002C5.00668 9.16002 5.36668 9.30669 5.57334 9.09335L7.42668 7.23335C7.55334 7.10002 7.55334 6.89335 7.42668 6.76002L5.57334 4.90002C5.36668 4.68669 5.00668 4.84002 5.00668 5.13335V6.33335ZM8.99334 4.86002V3.66669H13C13.3667 3.66669 13.6667 3.36669 13.6667 3.00002C13.6667 2.63335 13.3667 2.33335 13 2.33335H8.99334V1.14002C8.99334 0.84002 8.63334 0.693354 8.42668 0.906687L6.57334 2.76669C6.44668 2.90002 6.44668 3.10669 6.57334 3.24002L8.42668 5.10002C8.63334 5.30669 8.99334 5.16002 8.99334 4.86002Z" fill="#212121" fill-opacity="0.86"/>
</svg>
